# xmcd CD database file
#
# Track frame offsets:
#	150
#	14943
#	28044
#	41033
#	55115
#	71578
#	85315
#	97501
#	112453
#	125364
#	137307
#	154375
#	173189
#	189685
#	203070
#	218651
#	235468
#	246688
#	264555
#	282524
#	296118
#	306094
#	319559
#	332336
#	343718
#
# Disc length: 4762 seconds
#
# Revision: 0
# Processed by: cddbd v1.5.2PL0 Copyright (c) Steve Scherf et al.
# Submitted via: CDex 1.51
#
DISCID=82129819
DTITLE=Reynaldo Armas - Venezuela
DYEAR=1900
DGENRE=Salsa
TTITLE0=Mi Amigo el Camino
TTITLE1=Murio la Rosa
TTITLE2=Alla en el valle
TTITLE3=Labrinto
TTITLE4=La Caida de un Cristal
TTITLE5=El Pasaje sin Nombre
TTITLE6=Mi mas Hermosos Motivo
TTITLE7=Cator Poeta y Pintor
TTITLE8=Tu Que vas pa San Fernando
TTITLE9=El Rosale de Mis Recueros
TTITLE10=Venezuele 11
TTITLE11=Venezuela 12
TTITLE12=Vernezuela 13
TTITLE13=Vernezuela 14
TTITLE14=Vernezuela  15
TTITLE15=Vernezuela  16
TTITLE16=Vernezuela  17
TTITLE17=Vernezuela 18
TTITLE18=Vernezuela  19
TTITLE19=Vernezuela  20
TTITLE20=Vernezuela  21
TTITLE21=Vernezuela 22
TTITLE22=Vernezuela  23
TTITLE23=Vernezuela  24
TTITLE24=Vernezuela  25
EXTD=
EXTT0=
EXTT1=
EXTT2=
EXTT3=
EXTT4=
EXTT5=
EXTT6=
EXTT7=
EXTT8=
EXTT9=
EXTT10=
EXTT11=
EXTT12=
EXTT13=
EXTT14=
EXTT15=
EXTT16=
EXTT17=
EXTT18=
EXTT19=
EXTT20=
EXTT21=
EXTT22=
EXTT23=
EXTT24=
PLAYORDER=
